<svg width="304" height="303" viewBox="0 0 304 303" fill="none" xmlns="http://www.w3.org/2000/svg">
<path d="M96.5099 192.84C84.4199 192.84 63.2299 199.92 57.8299 202.12C57.7199 204.12 57.5999 270.46 57.6199 272.45C66.1099 273.54 98.7199 279.26 130.62 295.4C143.41 301.88 166.46 299.01 182.45 295.02C197.54 291.24 282.3 260.44 291.69 256.76C301.06 251.76 302.34 239.24 298.84 231.57C294.54 222.1 284.74 217.91 278.02 219.69C277.62 219.59 217.25 241.61 217.25 241.61C214.85 242.51 211.38 242.76 216.35 239.2C230.61 229.84 221.04 210.64 213.42 208.06C205.73 204.18 199.68 205.62 191.09 205.62C191.09 205.62 161.09 206.01 158.78 205.42C147.19 203.39 112.4 192.84 96.5099 192.84Z" fill="#FFE0BF"/>
<path d="M302.56 231.44C300.368 225.472 295.899 220.618 290.132 217.943C284.365 215.268 277.772 214.99 271.8 217.17L225.15 234.24C226.279 231.416 226.853 228.401 226.84 225.36C226.84 218.995 224.312 212.89 219.811 208.389C215.31 203.889 209.205 201.36 202.84 201.36C202.84 201.36 161.68 201.36 161.38 201.26C158.19 200.67 129.82 195.58 116.63 191.48C89.4602 183 57.6302 198.57 56.2002 199.17C55.7287 199.406 55.3083 199.732 54.963 200.13C54.6176 200.528 54.3541 200.991 54.1874 201.491C54.0207 201.991 53.9542 202.519 53.9915 203.044C54.0289 203.57 54.1695 204.083 54.4052 204.555C54.6409 205.026 54.9672 205.447 55.3654 205.792C55.7636 206.137 56.2259 206.401 56.7259 206.568C57.226 206.734 57.754 206.801 58.2797 206.764C58.8055 206.726 59.3187 206.586 59.7902 206.35C60.0902 206.25 90.0602 191.58 114.24 199.07C127.62 203.26 154.69 208.15 159.99 209.07C160.69 209.17 202.84 209.27 202.84 209.27C205.026 209.125 207.218 209.431 209.28 210.167C211.343 210.904 213.232 212.057 214.831 213.553C216.43 215.05 217.705 216.859 218.577 218.868C219.448 220.878 219.898 223.045 219.898 225.235C219.898 227.425 219.448 229.592 218.577 231.602C217.705 233.611 216.43 235.42 214.831 236.917C213.232 238.413 211.343 239.566 209.28 240.302C207.218 241.039 205.026 241.345 202.84 241.2H137.94C136.879 241.2 135.862 241.621 135.112 242.372C134.362 243.122 133.94 244.139 133.94 245.2C133.94 246.261 134.362 247.278 135.112 248.028C135.862 248.779 136.879 249.2 137.94 249.2H202.87C205.882 249.206 208.867 248.629 211.66 247.5L274.49 224.5C276.452 223.762 278.542 223.426 280.636 223.511C282.73 223.597 284.786 224.104 286.68 225C289.545 226.322 291.952 228.465 293.598 231.157C295.244 233.849 296.054 236.969 295.926 240.121C295.797 243.274 294.736 246.317 292.876 248.866C291.017 251.415 288.443 253.355 285.48 254.44L199.07 286.17C197.28 286.87 153.52 303.84 126.85 289.17C97.4802 273 60.8502 268.81 59.3202 268.71C58.7608 268.574 58.1788 268.561 57.6138 268.671C57.0488 268.781 56.5142 269.011 56.0465 269.347C55.5787 269.682 55.1889 270.115 54.9036 270.615C54.6183 271.114 54.4442 271.67 54.3933 272.243C54.3424 272.817 54.4158 273.394 54.6085 273.937C54.8012 274.479 55.1087 274.973 55.51 275.386C55.9113 275.799 56.3969 276.12 56.9336 276.328C57.4704 276.535 58.0457 276.625 58.6202 276.59C58.9202 276.59 95.0902 280.68 122.96 296.05C131.35 300.64 141.74 303.05 153.82 303.05C160.282 302.992 166.728 302.423 173.1 301.35C182.963 299.675 192.641 297.052 202 293.52L288.31 261.88C291.255 260.831 293.962 259.209 296.275 257.107C298.589 255.004 300.462 252.464 301.787 249.634C303.112 246.803 303.863 243.737 303.996 240.614C304.129 237.491 303.641 234.373 302.56 231.44V231.44Z" fill="#F2D0AC"/>
<path d="M2.39993 199.76C2.36773 197.8 3.11203 195.908 4.47035 194.495C5.82867 193.083 7.69069 192.265 9.64993 192.22H50.3999C52.3574 192.267 54.2169 193.086 55.5731 194.499C56.9292 195.911 57.6722 197.802 57.6399 199.76V276.14C57.6748 278.099 56.9331 279.993 55.5766 281.408C54.2202 282.822 52.3592 283.643 50.3999 283.69H9.64993C7.68979 283.643 5.82778 282.823 4.46973 281.408C3.11168 279.994 2.3677 278.1 2.39993 276.14V199.76Z" fill="#E2E4F1"/>
<path d="M53 287H8C5.87827 287 3.84344 286.157 2.34315 284.657C0.842855 283.157 0 281.122 0 279V198C0 195.878 0.842855 193.843 2.34315 192.343C3.84344 190.843 5.87827 190 8 190H53C55.1217 190 57.1566 190.843 58.6569 192.343C60.1571 193.843 61 195.878 61 198V279C61 281.122 60.1571 283.157 58.6569 284.657C57.1566 286.157 55.1217 287 53 287ZM8 198V279H53V198H8Z" fill="#028960"/>
<path d="M151.25 149.49C191.97 149.49 224.98 116.69 224.98 76.25C224.98 35.81 192 3 151.25 3C110.5 3 77.5298 35.8 77.5298 76.25C77.5298 116.7 110.53 149.49 151.25 149.49Z" fill="white"/>
<path d="M151.5 152C109.3 152 75 117.92 75 76C75 34.08 109.3 0 151.5 0C193.7 0 228 34.08 228 76C228 117.92 193.7 152 151.5 152ZM151.5 8C113.7 8 83 38.45 83 76C83 113.55 113.7 144.05 151.5 144.05C189.3 144.05 220 113.55 220 76C220 38.45 189.3 8 151.5 8Z" fill="#F0F0F0"/>
<path fill-rule="evenodd" clip-rule="evenodd" d="M151.5 36C148.763 36 146.138 37.0873 144.203 39.0227C142.267 40.958 141.18 43.583 141.18 46.32V65.18H122.32C119.583 65.18 116.958 66.2673 115.023 68.2027C113.087 70.138 112 72.763 112 75.5C112 78.237 113.087 80.862 115.023 82.7973C116.958 84.7327 119.583 85.82 122.32 85.82H141.18V104.68C141.18 107.417 142.267 110.042 144.203 111.977C146.138 113.913 148.763 115 151.5 115C154.237 115 156.862 113.913 158.797 111.977C160.733 110.042 161.82 107.417 161.82 104.68V85.82H180.68C183.417 85.82 186.042 84.7327 187.977 82.7973C189.913 80.862 191 78.237 191 75.5C191 72.763 189.913 70.138 187.977 68.2027C186.042 66.2673 183.417 65.18 180.68 65.18H161.82V46.32C161.82 43.583 160.733 40.958 158.797 39.0227C156.862 37.0873 154.237 36 151.5 36V36Z" fill="#40B590" fill-opacity="0.5"/>
<path d="M180.59 58.56H168.44V46.41C168.44 41.7926 166.606 37.3643 163.341 34.0993C160.076 30.8343 155.647 29 151.03 29C146.413 29 141.984 30.8343 138.719 34.0993C135.454 37.3643 133.62 41.7926 133.62 46.41V58.56H122.41C117.793 58.56 113.364 60.3943 110.099 63.6593C106.834 66.9243 105 71.3526 105 75.97C105 80.5874 106.834 85.0157 110.099 88.2807C113.364 91.5457 117.793 93.38 122.41 93.38H133.62V104.59C133.62 109.207 135.454 113.636 138.719 116.901C141.984 120.166 146.413 122 151.03 122C155.647 122 160.076 120.166 163.341 116.901C166.606 113.636 168.44 109.207 168.44 104.59V93.38H180.59C185.207 93.38 189.636 91.5457 192.901 88.2807C196.166 85.0157 198 80.5874 198 75.97C198 71.3526 196.166 66.9243 192.901 63.6593C189.636 60.3943 185.207 58.56 180.59 58.56ZM180.59 82.56H163C161.569 82.5653 160.199 83.1359 159.187 84.1474C158.176 85.159 157.605 86.5295 157.6 87.96V104.56C157.534 106.27 156.807 107.888 155.574 109.074C154.341 110.26 152.696 110.923 150.985 110.923C149.274 110.923 147.629 110.26 146.396 109.074C145.163 107.888 144.436 106.27 144.37 104.56V87.85C144.365 86.4195 143.794 85.049 142.783 84.0374C141.771 83.0259 140.401 82.4553 138.97 82.45H122.37C120.66 82.3835 119.042 81.6575 117.856 80.4242C116.67 79.1909 116.007 77.5462 116.007 75.835C116.007 74.1238 116.67 72.4791 117.856 71.2458C119.042 70.0125 120.66 69.2865 122.37 69.22H139C140.431 69.2147 141.801 68.6441 142.813 67.6326C143.824 66.621 144.395 65.2505 144.4 63.82V46.28C144.365 45.3897 144.511 44.5015 144.828 43.6687C145.145 42.836 145.626 42.0757 146.244 41.4336C146.862 40.7914 147.603 40.2805 148.422 39.9316C149.242 39.5826 150.124 39.4028 151.015 39.4028C151.906 39.4028 152.788 39.5826 153.608 39.9316C154.428 40.2805 155.168 40.7914 155.786 41.4336C156.404 42.0757 156.885 42.836 157.202 43.6687C157.519 44.5015 157.665 45.3897 157.63 46.28V63.82C157.635 65.2505 158.206 66.621 159.217 67.6326C160.229 68.6441 161.599 69.2147 163.03 69.22H180.58C182.308 69.2869 183.943 70.0204 185.143 71.2668C186.342 72.5132 187.011 74.1755 187.011 75.905C187.011 77.6345 186.342 79.2968 185.143 80.5432C183.943 81.7896 182.308 82.5231 180.58 82.59L180.59 82.56Z" fill="#028960"/>
</svg>
